<?xml version="1.0" encoding="UTF-8" standalone="no"?>
<!DOCTYPE svg PUBLIC "-//W3C//DTD SVG 1.1//EN" "http://www.w3.org/Graphics/SVG/1.1/DTD/svg11.dtd">
<svg width="100%" height="100%" viewBox="0 0 378 378" version="1.1" xmlns="http://www.w3.org/2000/svg" xmlns:xlink="http://www.w3.org/1999/xlink" xml:space="preserve" xmlns:serif="http://www.serif.com/" style="fill-rule:evenodd;clip-rule:evenodd;stroke-linecap:round;stroke-linejoin:round;stroke-miterlimit:1.5;">
    <g transform="matrix(1,0,0,1,-1002.15,-2492.72)">
        <g transform="matrix(1.58096,0,0,1.58096,-226.101,-253.025)">
            <circle cx="896.194" cy="1856.05" r="116.657" style="fill:none;stroke:black;stroke-width:5.27px;"/>
        </g>
        <g transform="matrix(1.61339,0,0,1.61339,-255.161,-305.351)">
            <path d="M802.644,1914.87C802.644,1914.87 828.124,1877.51 824.057,1842.65C819.99,1807.8 868.191,1788.03 904.794,1794.13C941.397,1800.24 923.606,1807.04 935.807,1811.1C948.008,1815.17 975.686,1816.85 980.231,1832.13C984.776,1847.42 978.579,1860.64 945.526,1888.74C912.473,1916.83 912.629,1944.31 912.629,1963.27" style="fill:none;stroke:black;stroke-width:5.17px;"/>
        </g>
        <g transform="matrix(1.61339,0,0,1.61339,-255.161,-305.351)">
            <path d="M972.794,1862.25C972.794,1862.25 911.315,1889.29 896.194,1865.97" style="fill:none;stroke:black;stroke-width:5.17px;"/>
        </g>
        <g transform="matrix(1.61339,0,0,1.61339,-255.161,-305.351)">
            <path d="M955.442,1846.97L958.747,1846.97" style="fill:none;stroke:black;stroke-width:5.17px;"/>
        </g>
        <g transform="matrix(1.61339,0,0,1.61339,-255.161,-298.393)">
            <circle cx="882.312" cy="1824.24" r="18.411" style="fill:none;stroke:black;stroke-width:5.17px;"/>
        </g>
    </g>
</svg>
