<?xml version="1.0" encoding="UTF-8" standalone="no"?>
<!DOCTYPE svg PUBLIC "-//W3C//DTD SVG 1.1//EN" "http://www.w3.org/Graphics/SVG/1.1/DTD/svg11.dtd">
<svg width="100%" height="100%" viewBox="0 0 19 21" version="1.1" xmlns="http://www.w3.org/2000/svg" xmlns:xlink="http://www.w3.org/1999/xlink" xml:space="preserve" xmlns:serif="http://www.serif.com/" style="fill-rule:evenodd;clip-rule:evenodd;stroke-linejoin:round;stroke-miterlimit:2;">
    <g transform="matrix(1,0,0,1,-1.28817,-0.836395)">
        <g transform="matrix(0.86302,0,0,0.86302,1.43829,1.43639)">
            <path d="M12.307,7.481C12.95,7.16 13.767,6.689 14.585,6.043C14.758,6.401 14.777,6.714 14.688,6.966C14.625,7.144 14.506,7.299 14.35,7.422C14.181,7.555 13.97,7.652 13.737,7.704C13.294,7.804 12.777,7.746 12.307,7.481M12.419,10.763L13.269,11.254C11.533,12.227 11.061,14.034 10.5,15.794C9.939,14.034 9.467,12.227 7.731,11.254L8.581,10.763C8.75,10.699 8.859,10.533 8.85,10.353C8.772,8.705 9.217,7.976 9.818,7.519C10.033,7.355 10.268,7.272 10.5,7.272C10.732,7.272 10.967,7.355 11.182,7.519C11.783,7.976 12.228,8.705 12.15,10.353C12.141,10.533 12.25,10.699 12.419,10.763ZM10.5,0C11.483,0.026 12.468,0.217 13.324,0.588C13.916,0.846 14.468,1.186 14.969,1.592C15.195,1.776 15.381,1.953 15.586,2.157C16.138,2.176 16.946,1.562 17.321,0.988C16.676,3.104 13.73,5.603 11.691,6.559C11.69,6.559 11.69,6.558 11.689,6.558C11.323,6.278 10.912,6.139 10.5,6.139C10.088,6.139 9.677,6.278 9.311,6.558C9.31,6.558 9.31,6.559 9.309,6.559C7.27,5.603 4.324,3.104 3.679,0.988C4.054,1.562 4.862,2.176 5.414,2.157C5.619,1.953 5.805,1.776 6.031,1.592C6.532,1.186 7.084,0.846 7.676,0.588C8.532,0.217 9.517,0.026 10.5,0M8.693,7.481C8.05,7.16 7.233,6.689 6.415,6.043C6.242,6.401 6.223,6.714 6.312,6.966C6.375,7.144 6.494,7.299 6.65,7.422C6.819,7.555 7.03,7.652 7.263,7.704C7.706,7.804 8.223,7.746 8.693,7.481" style="stroke:white;stroke-width:0.7px;"/>
        </g>
        <g transform="matrix(0.86302,0,0,0.86302,1.43829,1.43639)">
            <path d="M15.482,5.251C15.932,4.796 16.329,4.293 16.648,3.844L16.811,4.149C17.332,5.194 17.604,6.234 17.604,7.404L17.602,9.261L17.612,10.224C17.65,12.588 18.162,14.979 19.32,17.167L16.896,15.213L15.181,17.996L13.379,16.3L10.5,20.972L7.621,16.3L5.819,17.996L4.104,15.213L1.68,17.168C2.839,14.979 3.35,12.588 3.388,10.224L3.398,9.261L3.396,7.404C3.396,6.234 3.668,5.194 4.19,4.149L4.352,3.844C4.671,4.293 5.068,4.796 5.518,5.251L5.378,5.543C5.104,6.111 5.014,6.746 5.227,7.349C5.364,7.738 5.615,8.072 5.938,8.326C6.251,8.573 6.622,8.74 7.011,8.827C7.264,8.884 7.522,8.908 7.778,8.9C7.718,9.239 7.692,9.59 7.69,9.948L5.404,11.269L7.168,12.258C7.309,12.337 7.444,12.428 7.57,12.529C9.024,13.835 9.899,17.699 10.5,19.586C11.101,17.699 11.976,13.835 13.43,12.529C13.557,12.428 13.691,12.337 13.832,12.258L15.596,11.269L13.31,9.948C13.308,9.59 13.282,9.239 13.222,8.9C13.478,8.908 13.736,8.884 13.989,8.827C14.378,8.74 14.749,8.573 15.063,8.326C15.386,8.072 15.636,7.738 15.773,7.349C15.986,6.746 15.896,6.111 15.622,5.543L15.482,5.251L15.482,5.251Z"/>
            <path d="M14.857,5.557C14.731,5.299 14.774,4.978 14.988,4.762C15.41,4.335 15.782,3.863 16.082,3.441C16.221,3.245 16.453,3.135 16.693,3.15C16.934,3.166 17.149,3.305 17.262,3.518C17.262,3.518 17.424,3.823 17.432,3.838C18.004,4.982 18.299,6.122 18.299,7.404C18.299,7.404 18.299,7.404 18.299,7.404C18.299,7.404 18.298,9.262 18.298,9.254C18.298,9.254 18.307,10.217 18.307,10.213C18.344,12.469 18.828,14.753 19.934,16.842C20.089,17.134 20.017,17.494 19.762,17.704C19.508,17.914 19.141,17.916 18.884,17.709L17.074,16.249L15.773,18.361C15.663,18.539 15.479,18.658 15.272,18.685C15.065,18.713 14.857,18.645 14.704,18.502L13.524,17.391L11.092,21.337C10.965,21.542 10.741,21.668 10.5,21.668C10.259,21.668 10.035,21.542 9.908,21.337L7.476,17.391L6.296,18.502C6.143,18.646 5.935,18.713 5.728,18.685C5.521,18.658 5.337,18.539 5.227,18.361L3.926,16.249L2.116,17.709C1.859,17.916 1.492,17.914 1.238,17.704C0.983,17.494 0.911,17.134 1.066,16.842C2.172,14.753 2.656,12.469 2.693,10.217C2.693,10.217 2.702,9.254 2.702,9.262C2.702,9.262 2.701,7.404 2.701,7.404C2.701,6.122 2.996,4.982 3.568,3.838L3.738,3.518C3.851,3.305 4.066,3.166 4.307,3.15C4.547,3.135 4.779,3.245 4.918,3.441C5.218,3.863 5.59,4.335 6.012,4.762C6.219,4.971 6.272,5.288 6.145,5.553C6.145,5.553 6.004,5.845 6.004,5.845C5.811,6.246 5.732,6.692 5.882,7.118C5.976,7.382 6.148,7.607 6.368,7.78C6.6,7.963 6.876,8.084 7.164,8.149C7.359,8.193 7.558,8.211 7.756,8.205C7.966,8.198 8.167,8.286 8.304,8.445C8.441,8.603 8.499,8.814 8.463,9.021C8.41,9.321 8.387,9.634 8.386,9.952C8.385,10.199 8.252,10.427 8.038,10.55L6.81,11.26L7.508,11.651C7.683,11.749 7.849,11.861 8.005,11.986L8.034,12.011C8.68,12.591 9.242,13.612 9.703,14.778C10.004,15.538 10.267,16.36 10.5,17.137C10.733,16.361 10.996,15.538 11.297,14.778C11.758,13.612 12.321,12.591 12.966,12.011C12.975,12.003 12.985,11.995 12.995,11.987C13.151,11.861 13.317,11.749 13.492,11.651L14.19,11.26L12.962,10.55C12.748,10.427 12.616,10.199 12.614,9.952C12.613,9.634 12.591,9.321 12.537,9.021C12.501,8.814 12.56,8.603 12.697,8.445C12.834,8.286 13.035,8.198 13.244,8.205C13.442,8.211 13.641,8.193 13.837,8.149C14.124,8.084 14.4,7.963 14.632,7.78C14.852,7.607 15.024,7.382 15.118,7.118C15.268,6.692 15.189,6.246 14.996,5.845L14.857,5.557ZM15.482,5.251C15.932,4.796 16.329,4.293 16.648,3.844L16.811,4.149C17.332,5.194 17.604,6.234 17.604,7.404L17.602,9.261L17.612,10.224C17.65,12.588 18.162,14.979 19.32,17.167L16.896,15.213L15.181,17.996L13.379,16.3L10.5,20.972L7.621,16.3L5.819,17.996L4.104,15.213L1.68,17.168C2.838,14.979 3.35,12.588 3.388,10.224L3.398,9.261L3.396,7.404C3.396,6.234 3.668,5.194 4.19,4.149L4.352,3.844C4.671,4.293 5.068,4.796 5.518,5.251L5.378,5.543C5.104,6.111 5.014,6.746 5.227,7.349C5.364,7.738 5.615,8.072 5.938,8.326C6.251,8.573 6.622,8.74 7.011,8.827C7.264,8.884 7.522,8.908 7.778,8.9C7.718,9.239 7.692,9.59 7.69,9.948L5.404,11.269L7.168,12.258C7.309,12.337 7.444,12.428 7.57,12.529C9.024,13.835 9.899,17.699 10.5,19.586C11.101,17.699 11.976,13.835 13.43,12.529C13.557,12.428 13.691,12.337 13.832,12.258L15.596,11.269L13.31,9.948C13.308,9.59 13.282,9.239 13.222,8.9C13.478,8.908 13.736,8.884 13.989,8.827C14.378,8.74 14.749,8.573 15.063,8.326C15.386,8.072 15.636,7.738 15.773,7.349C15.986,6.746 15.896,6.111 15.622,5.543L15.482,5.251Z" style="fill:white;"/>
        </g>
    </g>
</svg>
