<?xml version="1.0" encoding="UTF-8" standalone="no"?>
<!DOCTYPE svg PUBLIC "-//W3C//DTD SVG 1.1//EN" "http://www.w3.org/Graphics/SVG/1.1/DTD/svg11.dtd">
<svg width="100%" height="100%" viewBox="0 0 2135 2135" version="1.1" xmlns="http://www.w3.org/2000/svg" xmlns:xlink="http://www.w3.org/1999/xlink" xml:space="preserve" xmlns:serif="http://www.serif.com/" style="fill-rule:evenodd;clip-rule:evenodd;stroke-linecap:round;stroke-linejoin:round;stroke-miterlimit:1.5;">
    <g transform="matrix(1,0,0,1,-432.954,-432.954)">
        <path d="M2499.53,1190.29C2499.53,1266.42 2225.53,1563.14 2102.74,1623.95C2090.18,1630.16 2102.74,1018.76 2102.74,991.568C2102.74,991.568 2113.6,905.808 2026.32,913.008C1963.04,918.228 1842.62,906.948 1830.5,913.008C1830.5,913.008 1768.33,900.21 1773.51,991.568C1778.69,1082.93 1768.33,1786.43 1768.33,1786.43C1768.33,1786.43 1667.83,1864.14 1653.33,1863.1C1638.82,1862.06 1653.33,1203.11 1653.33,1203.11C1653.33,1203.11 1653.33,1119.19 1581.84,1125.41C1510.35,1131.62 1402.59,1131.62 1402.59,1131.62C1402.59,1131.62 1326.96,1119.74 1327.99,1190.29C1329.03,1260.84 1326.96,1934.59 1326.96,1934.59C1326.96,1934.59 1219.2,2023.11 1219.2,2004.01L1219.2,1435.52C1219.2,1435.52 1212.99,1361.63 1142.53,1352.31C1072.08,1342.98 948.785,1361.63 948.785,1361.63C948.785,1361.63 898.467,1361.24 887.881,1435.52C877.295,1509.79 877.295,2023.11 877.295,2023.11C877.295,2023.11 854.501,2090.34 621.381,2067.9" style="fill:none;stroke:black;stroke-width:41.67px;"/>
        <path d="M2546.21,1435.52C2546.21,2012.94 2077.42,2546.21 1500,2546.21C1271.51,2546.21 1060.03,2472.81 887.881,2348.32" style="fill:none;stroke:black;stroke-width:41.67px;"/>
        <path d="M887.881,2348.32C1758.26,2216.07 2135.91,1907.86 2546.21,1435.52" style="fill:none;stroke:black;stroke-width:41.67px;"/>
        <path d="M621.393,2067.9C515.372,1904.3 453.788,1709.29 453.788,1500C453.788,922.58 922.58,453.788 1500,453.788C1969.62,453.788 2367.38,763.873 2499.53,1190.29" style="fill:none;stroke:black;stroke-width:41.67px;"/>
    </g>
</svg>
