<?xml version="1.0" encoding="UTF-8" standalone="no"?>
<!DOCTYPE svg PUBLIC "-//W3C//DTD SVG 1.1//EN" "http://www.w3.org/Graphics/SVG/1.1/DTD/svg11.dtd">
<svg width="100%" height="100%" viewBox="0 0 897 963" version="1.1" xmlns="http://www.w3.org/2000/svg" xmlns:xlink="http://www.w3.org/1999/xlink" xml:space="preserve" xmlns:serif="http://www.serif.com/" style="fill-rule:evenodd;clip-rule:evenodd;stroke-linecap:round;stroke-linejoin:round;stroke-miterlimit:1.5;">
    <g transform="matrix(1,0,0,1,-417.513,-438.713)">
        <path d="M876.672,488.61L1248.72,1133.86L503.918,699.394L1248.72,699.394L876.672,1361.31L510.734,1133.86L1248.72,699.394L869.122,469.586L900.382,1361.31L510.734,725.5L496.392,1117.01L1248.72,1157.26L876.672,1361.31L900.382,1382.47L884.691,913.705L496.392,680.409L843.09,488.61L1271.06,700.603L876.672,1361.31L496.392,1133.86L876.672,941.308L1271.06,1133.86L1282.21,734.389L922.049,913.705L843.09,513.511L510.734,1088.36L477.064,700.608L869.122,1382.47L900.382,442.88L1294.68,1157.26L477.064,660.566L1271.06,660.566L876.672,1397.39L440.778,680.409L839.528,442.88L1282.21,1191.49L466.476,1129.97L1294.68,660.566L421.68,725.5L1225.71,1216.32L922.049,1389.63L948.787,442.88L1309.74,1091.79L1309.74,700.608L440.778,1117.01" style="fill:none;stroke:black;stroke-width:8.33px;"/>
    </g>
</svg>
