<?xml version="1.0" encoding="UTF-8" standalone="no"?>
<!DOCTYPE svg PUBLIC "-//W3C//DTD SVG 1.1//EN" "http://www.w3.org/Graphics/SVG/1.1/DTD/svg11.dtd">
<svg width="100%" height="100%" viewBox="0 0 1387 1724" version="1.1" xmlns="http://www.w3.org/2000/svg" xmlns:xlink="http://www.w3.org/1999/xlink" xml:space="preserve" xmlns:serif="http://www.serif.com/" style="fill-rule:evenodd;clip-rule:evenodd;stroke-linecap:round;stroke-linejoin:round;stroke-miterlimit:1.5;">
    <g transform="matrix(1,0,0,1,-839.127,-655.737)">
        <path d="M1847.12,759.359C1850.57,750.542 1847.36,740.514 1839.44,735.332C1831.51,730.15 1821.04,731.234 1814.35,737.928C1615.08,937.197 1034.82,1517.46 887.852,1664.42C882.132,1670.14 880.421,1678.75 883.517,1686.22C886.612,1693.69 893.905,1698.57 901.994,1698.57C1009.09,1698.57 1264.06,1698.57 1352.66,1698.57C1359.46,1698.57 1365.78,1702.01 1369.47,1707.72C1373.15,1713.42 1373.69,1720.61 1370.89,1726.8C1328.2,1821.34 1189.11,2129.31 1120.97,2280.21C1117.09,2288.8 1119.73,2298.93 1127.32,2304.53C1134.9,2310.13 1145.37,2309.67 1152.43,2303.43C1365.88,2114.86 2005.4,1549.91 2171.19,1403.45C2177.42,1397.95 2179.59,1389.16 2176.65,1381.39C2173.71,1373.61 2166.26,1368.46 2157.95,1368.46C2035.06,1368.46 1733.31,1368.46 1638.07,1368.46C1631.46,1368.46 1625.28,1365.2 1621.55,1359.74C1617.83,1354.28 1617.04,1347.33 1619.45,1341.18C1657.1,1244.95 1784.77,918.698 1847.12,759.359Z" style="fill:none;stroke:black;stroke-width:29.17px;"/>
    </g>
</svg>
