<?xml version="1.0" encoding="UTF-8" standalone="no"?>
<!DOCTYPE svg PUBLIC "-//W3C//DTD SVG 1.1//EN" "http://www.w3.org/Graphics/SVG/1.1/DTD/svg11.dtd">
<svg width="100%" height="100%" viewBox="0 0 67 55" version="1.1" xmlns="http://www.w3.org/2000/svg" xmlns:xlink="http://www.w3.org/1999/xlink" xml:space="preserve" xmlns:serif="http://www.serif.com/" style="fill-rule:evenodd;clip-rule:evenodd;stroke-linecap:round;stroke-linejoin:round;">
    <g transform="matrix(1,0,0,1,-5.74499,-2.49199)">
        <g transform="matrix(1,0,0,1,1.24499,1.99199)">
            <path d="M64.151,14.464L64.151,16.218C64.151,33.886 50.556,54.132 25.678,54.132C18.334,54.148 11.146,52.044 5,48.079C6.067,48.222 7.144,48.287 8.221,48.272C14.309,48.289 20.225,46.287 25.02,42.588C22.191,42.547 19.448,41.628 17.18,39.962C14.912,38.295 13.234,35.967 12.385,33.307C13.227,33.483 14.086,33.571 14.948,33.57C16.15,33.57 17.347,33.411 18.507,33.096C15.443,32.494 12.687,30.861 10.711,28.477C8.734,26.093 7.659,23.105 7.669,20.025L7.669,19.85C9.543,20.882 11.645,21.448 13.791,21.499C10.934,19.646 8.903,16.787 8.112,13.506C7.322,10.226 7.832,6.771 9.538,3.849C12.937,7.971 17.178,11.342 21.986,13.742C26.793,16.142 32.059,17.518 37.441,17.78C37.174,16.784 37.049,15.757 37.067,14.727C36.967,12.006 37.72,9.32 39.223,7.036C40.727,4.751 42.908,2.979 45.47,1.961C48.031,0.943 50.849,0.728 53.539,1.345C56.229,1.962 58.661,3.382 60.503,5.411C63.532,4.808 66.437,3.711 69.099,2.165C68.089,5.308 65.942,7.974 63.066,9.656C65.752,9.291 68.371,8.547 70.842,7.446C69.052,10.158 66.786,12.534 64.151,14.464Z" style="fill:none;fill-rule:nonzero;stroke:black;stroke-width:1px;"/>
        </g>
    </g>
</svg>
