<?xml version="1.0" encoding="UTF-8" standalone="no"?>
<!DOCTYPE svg PUBLIC "-//W3C//DTD SVG 1.1//EN" "http://www.w3.org/Graphics/SVG/1.1/DTD/svg11.dtd">
<svg width="100%" height="100%" viewBox="0 0 71 58" version="1.1" xmlns="http://www.w3.org/2000/svg" xmlns:xlink="http://www.w3.org/1999/xlink" xml:space="preserve" xmlns:serif="http://www.serif.com/" style="fill-rule:evenodd;clip-rule:evenodd;stroke-linejoin:round;stroke-miterlimit:2;">
    <g transform="matrix(1,0,0,1,-2.67327,-1.91025)">
        <g transform="matrix(1,0,0,1,0,3.23698)">
            <path d="M64.151,14.464L64.151,16.218C64.151,33.886 50.556,54.132 25.678,54.132C18.334,54.148 11.146,52.044 5,48.079C6.067,48.222 7.144,48.287 8.221,48.272C14.309,48.289 20.225,46.287 25.02,42.588C22.191,42.547 19.448,41.628 17.18,39.962C14.912,38.295 13.234,35.967 12.385,33.307C13.227,33.483 14.086,33.571 14.948,33.57C16.15,33.57 17.347,33.411 18.507,33.096C15.443,32.494 12.687,30.861 10.711,28.477C8.734,26.093 7.659,23.105 7.669,20.025L7.669,19.85C9.543,20.882 11.645,21.448 13.791,21.499C10.934,19.646 8.903,16.787 8.112,13.506C7.322,10.226 7.832,6.771 9.538,3.849C12.937,7.971 17.178,11.342 21.986,13.742C26.793,16.142 32.059,17.518 37.441,17.78C37.174,16.784 37.049,15.757 37.067,14.727C36.967,12.006 37.72,9.32 39.223,7.036C40.727,4.751 42.908,2.979 45.47,1.961C48.031,0.943 50.849,0.728 53.539,1.345C56.229,1.962 58.661,3.382 60.503,5.411C63.532,4.808 66.437,3.711 69.099,2.165C68.089,5.308 65.942,7.974 63.066,9.656C65.752,9.291 68.371,8.547 70.842,7.446C69.052,10.158 66.786,12.534 64.151,14.464Z" style="fill-rule:nonzero;"/>
            <path d="M34.74,14.747C34.636,11.565 35.522,8.428 37.28,5.756C39.044,3.075 41.603,0.994 44.61,-0.201C47.61,-1.394 50.909,-1.646 54.059,-0.923C56.758,-0.304 59.234,1.005 61.245,2.86C63.591,2.277 65.842,1.366 67.93,0.153C68.762,-0.331 69.807,-0.252 70.557,0.352C71.308,0.956 71.608,1.96 71.314,2.876C71.06,3.668 70.744,4.434 70.371,5.167C71.192,4.997 72.058,5.282 72.617,5.941C73.286,6.73 73.354,7.865 72.784,8.728C71.061,11.337 68.932,13.661 66.478,15.613L66.478,16.218C66.478,34.962 52.071,56.459 25.683,56.459C17.889,56.476 10.261,54.242 3.739,50.035C2.823,49.444 2.44,48.297 2.817,47.275C3.193,46.253 4.229,45.629 5.309,45.773C6.263,45.901 7.226,45.959 8.227,45.946C11.936,45.956 15.575,45.148 18.888,43.606C17.801,43.136 16.765,42.544 15.803,41.837C13.137,39.879 11.166,37.141 10.168,34.014C9.917,33.226 10.103,32.363 10.657,31.748L10.658,31.747C10.034,31.202 9.453,30.605 8.919,29.962C6.593,27.156 5.33,23.641 5.343,20.025L5.343,19.85C5.343,19.027 5.777,18.265 6.486,17.847C6.702,17.719 6.935,17.629 7.174,17.577C6.594,16.468 6.148,15.285 5.85,14.051C4.919,10.187 5.519,6.118 7.528,2.676C7.912,2.019 8.592,1.591 9.351,1.53C10.109,1.469 10.849,1.782 11.333,2.369C14.526,6.241 18.51,9.406 23.025,11.66C26.703,13.497 30.667,14.695 34.742,15.21C34.738,15.056 34.738,14.901 34.74,14.747ZM64.151,14.464L64.151,16.218C64.151,33.886 50.556,54.132 25.678,54.132C18.334,54.148 11.146,52.044 5,48.079C6.067,48.222 7.144,48.287 8.221,48.272C14.309,48.289 20.225,46.287 25.02,42.588C22.191,42.547 19.448,41.628 17.18,39.962C14.912,38.295 13.234,35.967 12.385,33.307C13.227,33.483 14.086,33.571 14.948,33.57C16.15,33.57 17.347,33.411 18.507,33.096C15.443,32.494 12.687,30.861 10.711,28.477C8.734,26.093 7.659,23.105 7.669,20.025L7.669,19.85C9.543,20.882 11.645,21.448 13.791,21.499C10.934,19.646 8.903,16.787 8.112,13.506C7.322,10.226 7.832,6.771 9.538,3.849C12.937,7.971 17.178,11.342 21.986,13.742C26.793,16.142 32.059,17.518 37.441,17.78C37.174,16.784 37.049,15.757 37.067,14.727C36.967,12.006 37.72,9.32 39.223,7.036C40.727,4.751 42.908,2.979 45.47,1.961C48.031,0.943 50.849,0.728 53.539,1.345C56.229,1.962 58.661,3.382 60.503,5.411C63.532,4.808 66.437,3.711 69.099,2.165C68.089,5.308 65.942,7.974 63.066,9.656C65.752,9.291 68.371,8.547 70.842,7.446C69.052,10.158 66.786,12.534 64.151,14.464Z" style="fill:white;"/>
        </g>
    </g>
</svg>
